# xmcd CD database file
#
# Track frame offsets:
#	150
#	19405
#	36180
#	57199
#	73166
#	91811
#	115393
#	137746
#	155930
#	176271
#	198263
#	225005
#	246808
#	263212
#	279643
#	297052
#	315582
#
# Disc length: 4407 seconds
#
# Revision: 0
# Processed by: cddbd v1.5.2PL0 Copyright (c) Steve Scherf et al.
# Submitted via: CDex 1.51
#
DISCID=ef113511
DTITLE=emanuel - lo mejor
DYEAR=1900
DGENRE=Blues
TTITLE0=falsaria
TTITLE1=el bodeguero
TTITLE2=suavecito mi vida
TTITLE3=amalia batista
TTITLE4=la bamba
TTITLE5=pedro navajas
TTITLE6=sentirme vivo
TTITLE7=corazon de melao
TTITLE8=respirando
TTITLE9=no he podido verte
TTITLE10=la ultima luna
TTITLE11=toda la vida
TTITLE12=es mi mujer
TTITLE13=insoportablemente bella
TTITLE14=detenerla ya
TTITLE15=pobre diablo
TTITLE16=desesperado
EXTD=
EXTT0=
EXTT1=
EXTT2=
EXTT3=
EXTT4=
EXTT5=
EXTT6=
EXTT7=
EXTT8=
EXTT9=
EXTT10=
EXTT11=
EXTT12=
EXTT13=
EXTT14=
EXTT15=
EXTT16=
PLAYORDER=
